<svg width="478" height="29" viewBox="0 0 478 29" fill="none" xmlns="http://www.w3.org/2000/svg">
<path d="M476.463 13.4021C464.973 13.4021 463.814 12.2429 463.814 0.75293C463.814 0.553222 463.735 0.361674 463.594 0.220459C463.452 0.0792442 463.261 0 463.061 0C462.861 0 462.67 0.0792442 462.529 0.220459C462.387 0.361674 462.308 0.553222 462.308 0.75293C462.308 12.2429 461.149 13.4021 449.66 13.4021H28.3391C16.8501 13.4021 15.6912 12.2429 15.6912 0.75293C15.6912 0.553222 15.6117 0.361674 15.4705 0.220459C15.3292 0.0792441 15.1377 0 14.938 0C14.7383 0 14.5467 0.0792441 14.4055 0.220459C14.2643 0.361674 14.1851 0.553222 14.1851 0.75293C14.1851 12.2429 13.0261 13.4021 1.53613 13.4021C1.33642 13.4021 1.14488 13.4813 1.00366 13.6226C0.862447 13.7638 0.782959 13.9553 0.782959 14.155C0.782959 14.3547 0.862447 14.5463 1.00366 14.6875C1.14488 14.8287 1.33642 14.908 1.53613 14.908C13.0261 14.908 14.1851 16.0671 14.1851 27.5571C14.1851 27.7568 14.2643 27.9481 14.4055 28.0894C14.5467 28.2306 14.7383 28.3101 14.938 28.3101C15.1377 28.3101 15.3292 28.2306 15.4705 28.0894C15.6117 27.9481 15.6912 27.7568 15.6912 27.5571C15.6912 16.0671 16.8501 14.908 28.3391 14.908H449.66C461.149 14.908 462.308 16.0671 462.308 27.5571C462.308 27.7568 462.387 27.9481 462.529 28.0894C462.67 28.2306 462.861 28.3101 463.061 28.3101C463.261 28.3101 463.452 28.2306 463.594 28.0894C463.735 27.9481 463.814 27.7568 463.814 27.5571C463.814 16.0671 464.973 14.908 476.463 14.908C476.663 14.908 476.854 14.8287 476.996 14.6875C477.137 14.5463 477.216 14.3547 477.216 14.155C477.216 13.9553 477.137 13.7638 476.996 13.6226C476.854 13.4813 476.663 13.4021 476.463 13.4021Z" fill="#E4E4E5"/>
</svg>
