<svg width="1090" height="318" viewBox="0 0 1090 318" fill="none" xmlns="http://www.w3.org/2000/svg">
<g clip-path="url(#clip0_815_3128)">
<path d="M369.43 97.1139C369.43 109.619 365.431 114.494 355.169 114.494C344.906 114.494 340.808 109.619 340.808 97.1139V61.861H313.847V101.577C313.847 112.192 315.841 118.505 320.716 123.37C327.03 129.783 337.988 132.769 355.179 132.769C371.182 132.769 382.039 130.035 388.384 124.416C394.074 119.56 396.4 112.946 396.4 101.577V61.861H369.44V97.1139H369.43Z" fill="white"/>
<path d="M466.032 84.0059C466.032 90.7509 466.979 97.3049 468.721 102.743C464.955 95.023 464.199 93.9073 459.385 87.7553L437.964 61.871H407.912V130.648H434.872V105.859C434.872 99.2651 434.348 95.0934 432.707 89.7758C435.396 95.8674 437.501 99.3153 441.207 103.949L463.756 130.648H492.993V61.861H466.032V84.0059Z" fill="white"/>
<path d="M583.119 70.2244C576.18 63.8111 568.637 61.861 550.811 61.861H505.31V130.638H551.214C571.034 130.638 577.55 129.04 584.449 122.465C590.159 116.876 593.049 108.342 593.049 97.1139C593.049 85.2322 589.706 76.1853 583.119 70.2244ZM564.256 96.4002C564.256 102.984 562.312 107.85 558.787 110.101C556.058 111.85 552.805 112.363 544.305 112.363H532.29V80.1459H544.003C553.772 80.1459 555.998 80.5077 558.878 82.5986C562.353 85.001 564.256 89.9065 564.256 96.4102V96.4002Z" fill="white"/>
<path d="M630.101 104.934H672.239V86.6496H630.101V80.1358H681.001V61.861H603.131V130.638H684.153V112.363H630.101V104.934Z" fill="white"/>
<path d="M775.69 129.874C774.209 127.411 774.129 126.667 773.927 121.581C773.353 105.166 772.205 102.11 763.433 99.3053C767.472 98.2699 769.456 97.1843 771.359 95.1135C773.897 92.2587 775.357 87.4337 775.357 81.8748C775.357 75.0494 773.011 69.4504 768.761 66.1432C764.43 62.6652 759.868 61.871 744.318 61.871H693.529V130.648H720.49V106.362H734.75C745.476 106.362 746.262 107.337 746.765 121.229C747.067 126.627 747.178 127.481 747.581 130.216L747.641 130.648H776.143L775.69 129.884V129.874ZM746.654 84.7196C746.654 87.0115 745.768 88.9415 744.237 89.9869C743.089 90.7509 741.246 91.0223 737.188 91.0223H720.49V78.7184H737.389C745.275 78.7184 746.654 80.6485 746.654 84.7196Z" fill="white"/>
<path d="M59.8226 171.158C69.2693 171.158 73.5496 173.973 75.6242 181.562L75.7249 181.934H106.502L106.432 181.371C105.415 173.359 103.249 168.394 98.949 164.202C90.6907 156.482 78.2327 152.893 59.7219 152.893C43.6685 152.893 32.6809 155.708 24.1003 162.031C16.3556 167.7 12.0854 177.3 12.0854 189.051C12.0854 200.802 16.2246 210.482 24.3923 216.875C32.5701 223.389 42.3089 225.922 59.1076 225.922C75.9062 225.922 85.7155 223.892 94.3969 218.433C102.142 213.588 105.405 208.06 106.442 198.048L106.502 197.495H75.7954L75.6645 197.786C73.9424 201.536 72.9453 203.084 71.4145 204.421C69.0981 206.441 64.7675 207.647 59.8327 207.647C48.3113 207.647 41.7046 200.721 41.7046 188.639C41.7046 177.199 47.9689 171.158 59.8327 171.158H59.8226Z" fill="white"/>
<path d="M194.806 162.543C186.377 155.768 175.59 152.883 158.762 152.883C141.933 152.883 131.046 155.778 122.717 162.543C115.738 168.163 112.042 177.25 112.042 188.84C112.042 201.697 115.435 210.442 122.717 216.363C131.146 223.138 142.023 226.023 159.064 226.023C190.727 226.023 205.472 214.402 205.472 189.453C205.472 177.23 201.876 168.183 194.796 162.543H194.806ZM175.872 189.453C175.872 201.425 169.991 207.748 158.872 207.748C147.754 207.748 141.661 201.666 141.661 189.151C141.661 177.38 147.572 171.158 158.772 171.158C169.971 171.158 175.882 177.31 175.882 189.453H175.872Z" fill="white"/>
<path d="M273.079 177.159C273.079 183.904 274.026 190.458 275.768 195.896C272.001 188.166 271.246 187.051 266.432 180.909L245.001 155.024H214.948V223.801H241.909V199.013C241.909 192.428 241.375 188.247 239.744 182.929C242.433 189.021 244.537 192.479 248.254 197.103L270.803 223.801H300.04V155.024H273.079V177.169V177.159Z" fill="white"/>
<path d="M385.423 183.392C379.42 181.18 375.825 180.497 364.022 179.3C342.953 177.159 341.261 176.486 341.261 173.701C341.261 171.289 344.504 169.731 349.509 169.731C356.085 169.731 359.701 171.54 361.252 175.601L361.373 175.923H396.269L396.098 175.29C393.913 167.198 391.264 163.257 385.604 159.658C378.635 155.155 367.748 152.873 353.266 152.873C324.502 152.873 309.295 161.126 309.295 176.747C309.295 185.301 314.049 191.494 322.669 194.188C328.078 196.017 336.517 197.666 344.161 198.379C359.691 199.877 361.161 200.088 363.306 200.701C365.311 201.274 366.096 202.139 366.096 203.777C366.096 206.974 361.333 207.647 357.334 207.647C351.06 207.647 347.898 206.31 345.652 202.702L345.501 202.461H308.63L308.691 203.013C309.627 211.608 312.618 216.101 320.142 220.162C327.071 223.982 338.038 225.912 352.752 225.912C383.368 225.912 398.243 217.941 398.243 201.536C398.243 192.871 393.802 186.598 385.393 183.381L385.423 183.392Z" fill="white"/>
<path d="M401.537 173.289H427.389V223.791H454.35V173.289H480.514V155.014H401.537V173.289Z" fill="white"/>
<path d="M567.539 214.734C566.965 198.329 565.817 195.263 557.045 192.459C561.094 191.423 563.068 190.338 564.971 188.267C567.509 185.412 568.969 180.587 568.969 175.028C568.969 168.203 566.623 162.614 562.373 159.297C558.042 155.818 553.48 155.024 537.93 155.024H487.141V223.801H514.102V199.515H528.362C539.098 199.515 539.884 200.49 540.377 214.382C540.679 219.79 540.79 220.645 541.193 223.369L541.254 223.801H569.755L569.302 223.037C567.821 220.574 567.741 219.831 567.539 214.744V214.734ZM540.267 177.873C540.267 180.165 539.38 182.085 537.839 183.14C536.691 183.904 534.848 184.176 530.79 184.176H514.092V171.872H530.991C538.877 171.872 540.256 173.802 540.256 177.873H540.267Z" fill="white"/>
<path d="M634.019 190.267C634.019 202.772 630.021 207.647 619.758 207.647C609.496 207.647 605.397 202.772 605.397 190.267V155.014H578.436V194.73C578.436 205.345 580.42 211.658 585.295 216.523C591.609 222.937 602.567 225.922 619.758 225.922C635.751 225.922 646.618 223.188 652.963 217.569C658.653 212.714 660.979 206.099 660.979 194.73V155.014H634.019V190.267Z" fill="white"/>
<path d="M717.378 171.158C726.824 171.158 731.105 173.973 733.179 181.562L733.28 181.934H764.057L763.987 181.371C762.97 173.359 760.804 168.394 756.504 164.202C748.246 156.482 735.788 152.893 717.277 152.893C701.224 152.893 690.236 155.708 681.655 162.031C673.911 167.7 669.64 177.3 669.64 189.051C669.64 200.802 673.78 210.482 681.947 216.875C690.125 223.389 699.864 225.922 716.663 225.922C733.461 225.922 743.271 223.892 751.952 218.433C759.697 213.588 762.96 208.06 763.997 198.048L764.057 197.495H733.351L733.22 197.786C731.497 201.536 730.5 203.084 728.97 204.421C726.653 206.441 722.323 207.647 717.388 207.647C705.866 207.647 699.26 200.721 699.26 188.639C699.26 177.199 705.524 171.158 717.388 171.158H717.378Z" fill="white"/>
<path d="M767.562 173.289H793.415V223.791H820.385V173.289H846.54V155.014H767.562V173.289Z" fill="white"/>
<path d="M880.228 155.014H853.268V223.791H880.228V155.014Z" fill="white"/>
<path d="M972.671 162.543C964.242 155.768 953.465 152.883 936.627 152.883C919.788 152.883 908.911 155.778 900.582 162.543C893.603 168.163 889.906 177.25 889.906 188.84C889.906 201.697 893.3 210.442 900.582 216.363C909.011 223.138 919.888 226.023 936.929 226.023C968.592 226.023 983.337 214.402 983.337 189.453C983.337 177.23 979.741 168.183 972.661 162.543H972.671ZM953.737 189.453C953.737 201.425 947.856 207.748 936.737 207.748C925.619 207.748 919.526 201.666 919.526 189.151C919.526 177.38 925.438 171.158 936.637 171.158C947.836 171.158 953.747 177.31 953.747 189.453H953.737Z" fill="white"/>
<path d="M1050.94 155.014V177.159C1050.94 183.904 1051.89 190.458 1053.63 195.896C1049.87 188.176 1049.11 187.061 1044.3 180.909L1022.88 155.024H992.823V223.801H1019.78V199.013C1019.78 192.418 1019.26 188.247 1017.62 182.929C1020.31 189.021 1022.41 192.469 1026.12 197.103L1048.67 223.801H1077.9V155.024H1050.94V155.014Z" fill="white"/>
<mask id="mask0_815_3128" style="mask-type:luminance" maskUnits="userSpaceOnUse" x="0" y="234" width="1090" height="18">
<path d="M1090 234.587H0V251.274H1090V234.587Z" fill="white"/>
</mask>
<g mask="url(#mask0_815_3128)">
<path d="M105.938 219.247C104.921 229.099 101.769 234.487 94.135 239.261C85.5846 244.649 76.017 246.68 59.1176 246.68C42.2182 246.68 32.7514 244.137 24.7146 237.743C16.6677 231.441 12.599 222.092 12.599 210.311C12.599 198.53 16.7685 189.282 24.4024 183.693C32.9528 177.39 43.749 174.646 59.7219 174.646C78.142 174.646 90.5698 178.305 98.6066 185.824C102.776 189.885 104.921 194.66 105.938 202.692H76.1076C73.9725 194.871 69.4909 191.926 59.8226 191.926C47.6063 191.926 41.191 198.128 41.191 209.909C41.191 222.303 48.0091 229.42 59.8226 229.42C64.8078 229.42 69.2895 228.204 71.7368 226.063C73.3683 224.635 74.3855 223.017 76.1177 219.258H105.948L105.938 219.247Z" stroke="white" stroke-miterlimit="10"/>
<path d="M194.494 184.196C201.514 189.785 204.978 198.621 204.978 210.713C204.978 235.2 190.324 246.78 159.074 246.78C142.074 246.78 131.388 243.936 123.039 237.231C115.909 231.441 112.555 222.907 112.555 210.1C112.555 198.721 116.221 189.674 123.039 184.196C131.287 177.491 142.174 174.646 158.772 174.646C175.369 174.646 186.155 177.491 194.504 184.196H194.494ZM141.157 210.412C141.157 223.108 147.059 229.511 158.872 229.511C170.686 229.511 176.376 223.007 176.376 210.713C176.376 198.42 170.374 191.916 158.762 191.916C147.149 191.916 141.147 198.42 141.147 210.412H141.157Z" stroke="white" stroke-miterlimit="10"/>
<path d="M215.462 176.777H244.779L266.049 202.481C271.135 208.984 271.649 209.799 276.231 219.248H277.047C274.811 213.458 273.583 206.14 273.583 198.42V176.777H299.536V244.549H271.035L248.636 218.031C244.568 212.955 242.422 209.296 239.17 201.576H238.354C240.69 208.281 241.405 212.553 241.405 220.273V244.559H215.452V176.787L215.462 176.777Z" stroke="white" stroke-miterlimit="10"/>
<path d="M345.239 224.223C347.585 227.983 350.939 229.4 357.354 229.4C363.77 229.4 366.62 227.872 366.62 225.028C366.62 223.098 365.603 222.082 363.468 221.469C361.333 220.856 360.003 220.655 344.232 219.137C336.598 218.423 328.249 216.805 322.851 214.975C314.401 212.332 309.819 206.341 309.819 198.007C309.819 182.668 324.784 174.636 353.286 174.636C367.738 174.636 378.433 176.868 385.352 181.341C390.952 184.899 393.5 188.759 395.635 196.681H361.735C360.104 192.408 356.236 190.478 349.519 190.478C344.121 190.478 340.767 192.207 340.767 194.952C340.767 198.309 343.003 198.912 363.971 201.043C375.986 202.259 379.44 202.973 385.241 205.104C393.49 208.251 397.76 214.352 397.76 222.786C397.76 238.94 383.207 246.66 352.772 246.66C338.219 246.66 327.222 244.73 320.403 240.97C313.072 237.01 310.121 232.637 309.204 224.203H345.239V224.223Z" stroke="white" stroke-miterlimit="10"/>
<path d="M427.893 194.047H402.04V176.777H480.011V194.047H453.846V244.539H427.893V194.047Z" stroke="white" stroke-miterlimit="10"/>
<path d="M487.635 176.777H537.92C553.389 176.777 557.871 177.591 562.04 180.939C566.21 184.186 568.456 189.574 568.456 196.278C568.456 201.767 567.026 206.441 564.588 209.185C562.453 211.518 560.107 212.543 555.121 213.659C565.303 216.604 566.421 218.634 567.036 236.015C567.237 241.191 567.338 242.006 568.869 244.549H541.687C541.284 241.805 541.183 240.99 540.871 235.613C540.367 221.489 539.34 220.273 528.352 220.273H513.588V244.559H487.635V176.787V176.777ZM530.8 205.939C535.08 205.939 536.903 205.637 538.131 204.823C539.763 203.707 540.78 201.676 540.78 199.133C540.78 194.258 538.434 192.629 531.011 192.629H513.608V205.939H530.81H530.8Z" stroke="white" stroke-miterlimit="10"/>
<path d="M604.903 176.777V211.528C604.903 224.334 609.073 229.41 619.768 229.41C630.464 229.41 634.532 224.334 634.532 211.528V176.777H660.486V215.991C660.486 227.169 658.25 233.672 652.65 238.447C646.336 244.036 635.55 246.68 619.768 246.68C602.869 246.68 591.881 243.735 585.667 237.432C580.883 232.657 578.95 226.455 578.95 215.991V176.777H604.903Z" stroke="white" stroke-miterlimit="10"/>
<path d="M763.493 219.248C762.476 229.099 759.324 234.487 751.69 239.261C743.14 244.649 733.572 246.68 716.673 246.68C699.773 246.68 690.306 244.137 682.27 237.744C674.223 231.441 670.154 222.092 670.154 210.311C670.154 198.53 674.324 189.282 681.957 183.693C690.508 177.39 701.304 174.646 717.277 174.646C735.697 174.646 748.125 178.305 756.162 185.824C760.331 189.885 762.476 194.66 763.493 202.692H733.663C731.528 194.871 727.046 191.926 717.378 191.926C705.161 191.926 698.746 198.128 698.746 209.909C698.746 222.303 705.564 229.42 717.378 229.42C722.363 229.42 726.845 228.204 729.292 226.063C730.923 224.636 731.941 223.017 733.673 219.258H763.503L763.493 219.248Z" stroke="white" stroke-miterlimit="10"/>
<path d="M793.918 194.047H768.066V176.777H846.037V194.047H819.872V244.539H793.918V194.047Z" stroke="white" stroke-miterlimit="10"/>
<path d="M853.771 176.777H879.725V244.549H853.771V176.777Z" stroke="white" stroke-miterlimit="10"/>
<path d="M972.359 184.196C979.379 189.785 982.843 198.621 982.843 210.713C982.843 235.2 968.189 246.78 936.939 246.78C919.939 246.78 909.253 243.936 900.904 237.231C893.774 231.441 890.42 222.907 890.42 210.1C890.42 198.721 894.086 189.674 900.904 184.196C909.152 177.491 920.039 174.646 936.637 174.646C953.234 174.646 964.02 177.491 972.369 184.196H972.359ZM919.022 210.412C919.022 223.108 924.924 229.511 936.737 229.511C948.551 229.511 954.241 223.007 954.241 210.713C954.241 198.42 948.239 191.916 936.627 191.916C925.014 191.916 919.012 198.42 919.012 210.412H919.022Z" stroke="white" stroke-miterlimit="10"/>
<path d="M993.327 176.777H1022.64L1043.91 202.481C1049 208.984 1049.51 209.799 1054.1 219.248H1054.91C1052.68 213.458 1051.45 206.14 1051.45 198.42V176.777H1077.4V244.549H1048.9L1026.5 218.031C1022.43 212.955 1020.29 209.296 1017.03 201.576H1016.22C1018.57 208.281 1019.27 212.553 1019.27 220.273V244.559H993.317V176.787L993.327 176.777Z" stroke="white" stroke-miterlimit="10"/>
</g>
<mask id="mask1_815_3128" style="mask-type:luminance" maskUnits="userSpaceOnUse" x="0" y="251" width="1090" height="17">
<path d="M1090 251.274H0V267.96H1090V251.274Z" fill="white"/>
</mask>
<g mask="url(#mask1_815_3128)">
<path d="M105.938 235.924C104.921 245.775 101.769 251.163 94.135 255.938C85.5846 261.326 76.017 263.356 59.1176 263.356C42.2182 263.356 32.7514 260.813 24.7146 254.42C16.6677 248.117 12.599 238.769 12.599 226.988C12.599 215.207 16.7685 205.959 24.4024 200.37C32.9528 194.067 43.749 191.323 59.7219 191.323C78.142 191.323 90.5698 194.982 98.6066 202.501C102.776 206.562 104.921 211.337 105.938 219.368H76.1076C73.9725 211.548 69.4909 208.602 59.8226 208.602C47.6063 208.602 41.191 214.805 41.191 226.586C41.191 238.98 48.0091 246.097 59.8226 246.097C64.8078 246.097 69.2895 244.881 71.7368 242.739C73.3683 241.312 74.3855 239.694 76.1177 235.934H105.948L105.938 235.924Z" stroke="white" stroke-miterlimit="10"/>
<path d="M194.494 200.872C201.514 206.461 204.978 215.297 204.978 227.39C204.978 251.877 190.324 263.457 159.074 263.457C142.074 263.457 131.388 260.612 123.039 253.907C115.909 248.117 112.555 239.583 112.555 226.777C112.555 215.398 116.221 206.351 123.039 200.872C131.287 194.167 142.174 191.323 158.772 191.323C175.369 191.323 186.155 194.167 194.504 200.872H194.494ZM141.157 227.088C141.157 239.784 147.059 246.187 158.872 246.187C170.686 246.187 176.376 239.684 176.376 227.39C176.376 215.096 170.374 208.592 158.762 208.592C147.149 208.592 141.147 215.096 141.147 227.088H141.157Z" stroke="white" stroke-miterlimit="10"/>
<path d="M215.462 193.454H244.779L266.049 219.157C271.135 225.661 271.649 226.475 276.231 235.924H277.047C274.811 230.134 273.583 222.816 273.583 215.096V193.454H299.536V261.225H271.035L248.636 234.708C244.568 229.631 242.422 225.972 239.17 218.252H238.354C240.69 224.957 241.405 229.229 241.405 236.949V261.235H215.452V193.464L215.462 193.454Z" stroke="white" stroke-miterlimit="10"/>
<path d="M345.239 240.91C347.585 244.67 350.939 246.087 357.354 246.087C363.77 246.087 366.62 244.559 366.62 241.714C366.62 239.784 365.603 238.769 363.468 238.156C361.333 237.543 360.003 237.341 344.232 235.824C336.598 235.11 328.249 233.492 322.851 231.662C314.401 229.018 309.819 223.027 309.819 214.694C309.819 199.354 324.784 191.323 353.286 191.323C367.738 191.323 378.433 193.554 385.352 198.027C390.952 201.586 393.5 205.446 395.635 213.367H361.735C360.104 209.095 356.236 207.165 349.519 207.165C344.121 207.165 340.767 208.894 340.767 211.638C340.767 214.996 343.003 215.599 363.971 217.73C375.986 218.946 379.44 219.66 385.241 221.791C393.49 224.937 397.76 231.039 397.76 239.473C397.76 255.626 383.207 263.346 352.772 263.346C338.219 263.346 327.222 261.416 320.403 257.657C313.072 253.696 310.121 249.324 309.204 240.89H345.239V240.91Z" stroke="white" stroke-miterlimit="10"/>
<path d="M427.893 210.733H402.04V193.464H480.011V210.733H453.846V261.225H427.893V210.733V210.733Z" stroke="white" stroke-miterlimit="10"/>
<path d="M487.635 193.454H537.92C553.389 193.454 557.871 194.268 562.04 197.615C566.21 200.862 568.456 206.25 568.456 212.955C568.456 218.443 567.026 223.118 564.588 225.862C562.453 228.194 560.107 229.219 555.121 230.335C565.303 233.28 566.421 235.311 567.036 252.691C567.237 257.868 567.338 258.682 568.869 261.225H541.687C541.284 258.481 541.183 257.667 540.871 252.289C540.367 238.166 539.34 236.949 528.352 236.949H513.588V261.235H487.635V193.464V193.454ZM530.8 222.615C535.08 222.615 536.903 222.314 538.131 221.499C539.763 220.383 540.78 218.353 540.78 215.81C540.78 210.934 538.434 209.306 531.011 209.306H513.608V222.615H530.81H530.8Z" stroke="white" stroke-miterlimit="10"/>
<path d="M604.903 193.454V228.204C604.903 241.011 609.073 246.087 619.768 246.087C630.464 246.087 634.532 241.011 634.532 228.204V193.454H660.486V232.667C660.486 243.845 658.25 250.349 652.65 255.124C646.336 260.713 635.55 263.356 619.768 263.356C602.869 263.356 591.881 260.411 585.667 254.108C580.883 249.334 578.95 243.132 578.95 232.667V193.454H604.903V193.454Z" stroke="white" stroke-miterlimit="10"/>
<path d="M763.493 235.924C762.476 245.775 759.324 251.163 751.69 255.938C743.14 261.326 733.572 263.356 716.673 263.356C699.773 263.356 690.306 260.813 682.27 254.42C674.223 248.117 670.154 238.769 670.154 226.988C670.154 215.207 674.324 205.959 681.957 200.37C690.508 194.067 701.304 191.323 717.277 191.323C735.697 191.323 748.125 194.982 756.162 202.501C760.331 206.562 762.476 211.337 763.493 219.368H733.663C731.528 211.548 727.046 208.602 717.378 208.602C705.161 208.602 698.746 214.805 698.746 226.586C698.746 238.98 705.564 246.097 717.378 246.097C722.363 246.097 726.845 244.881 729.292 242.739C730.923 241.312 731.941 239.694 733.673 235.934H763.503L763.493 235.924Z" stroke="white" stroke-miterlimit="10"/>
<path d="M793.918 210.733H768.066V193.464H846.037V210.733H819.872V261.225H793.918V210.733V210.733Z" stroke="white" stroke-miterlimit="10"/>
<path d="M853.771 193.454H879.725V261.225H853.771V193.454Z" stroke="white" stroke-miterlimit="10"/>
<path d="M972.359 200.872C979.379 206.461 982.843 215.297 982.843 227.39C982.843 251.877 968.189 263.457 936.939 263.457C919.939 263.457 909.253 260.612 900.904 253.907C893.774 248.117 890.42 239.583 890.42 226.777C890.42 215.398 894.086 206.351 900.904 200.872C909.152 194.167 920.039 191.323 936.637 191.323C953.234 191.323 964.02 194.167 972.369 200.872H972.359ZM919.022 227.088C919.022 239.784 924.924 246.187 936.737 246.187C948.551 246.187 954.241 239.684 954.241 227.39C954.241 215.096 948.239 208.592 936.627 208.592C925.014 208.592 919.012 215.096 919.012 227.088H919.022Z" stroke="white" stroke-miterlimit="10"/>
<path d="M993.327 193.454H1022.64L1043.91 219.157C1049 225.661 1049.51 226.475 1054.1 235.924H1054.91C1052.68 230.134 1051.45 222.816 1051.45 215.096V193.454H1077.4V261.225H1048.9L1026.5 234.708C1022.43 229.631 1020.29 225.972 1017.03 218.252H1016.22C1018.57 224.957 1019.27 229.229 1019.27 236.949V261.235H993.317V193.464L993.327 193.454Z" stroke="white" stroke-miterlimit="10"/>
</g>
<mask id="mask2_815_3128" style="mask-type:luminance" maskUnits="userSpaceOnUse" x="0" y="267" width="1090" height="18">
<path d="M1090 267.95H0V284.637H1090V267.95Z" fill="white"/>
</mask>
<g mask="url(#mask2_815_3128)">
<path d="M105.938 252.611C104.921 262.462 101.769 267.85 94.135 272.624C85.5846 278.012 76.017 280.043 59.1176 280.043C42.2182 280.043 32.7514 277.5 24.7146 271.107C16.6677 264.804 12.599 255.455 12.599 243.674C12.599 231.893 16.7685 222.645 24.4024 217.056C32.9528 210.753 43.749 208.009 59.7219 208.009C78.142 208.009 90.5698 211.668 98.6066 219.187C102.776 223.248 104.921 228.023 105.938 236.055H76.1076C73.9725 228.234 69.4909 225.289 59.8226 225.289C47.6063 225.289 41.191 231.491 41.191 243.272C41.191 255.666 48.0091 262.783 59.8226 262.783C64.8078 262.783 69.2895 261.567 71.7368 259.426C73.3683 257.999 74.3855 256.38 76.1177 252.621H105.948L105.938 252.611Z" stroke="white" stroke-miterlimit="10"/>
<path d="M194.494 217.559C201.514 223.148 204.978 231.984 204.978 244.076C204.978 268.563 190.324 280.144 159.074 280.144C142.074 280.144 131.388 277.299 123.039 270.594C115.909 264.804 112.555 256.27 112.555 243.463C112.555 232.084 116.221 223.037 123.039 217.559C131.287 210.854 142.174 208.009 158.772 208.009C175.369 208.009 186.155 210.854 194.504 217.559H194.494ZM141.157 243.775C141.157 256.471 147.059 262.874 158.872 262.874C170.686 262.874 176.376 256.37 176.376 244.076C176.376 231.783 170.374 225.279 158.762 225.279C147.149 225.279 141.147 231.783 141.147 243.775H141.157Z" stroke="white" stroke-miterlimit="10"/>
<path d="M215.462 210.14H244.779L266.049 235.844C271.135 242.347 271.649 243.162 276.231 252.611H277.047C274.811 246.821 273.583 239.503 273.583 231.783V210.14H299.536V277.912H271.035L248.636 251.394C244.568 246.318 242.422 242.659 239.17 234.939H238.354C240.69 241.644 241.405 245.916 241.405 253.636V277.922H215.452V210.15L215.462 210.14Z" stroke="white" stroke-miterlimit="10"/>
<path d="M345.239 257.587C347.585 261.346 350.939 262.763 357.354 262.763C363.77 262.763 366.62 261.235 366.62 258.391C366.62 256.461 365.603 255.445 363.468 254.832C361.333 254.219 360.003 254.018 344.232 252.5C336.598 251.786 328.249 250.168 322.851 248.339C314.401 245.695 309.819 239.704 309.819 231.37C309.819 216.031 324.784 207.999 353.286 207.999C367.738 207.999 378.433 210.231 385.352 214.704C390.952 218.262 393.5 222.123 395.635 230.044H361.735C360.104 225.771 356.236 223.841 349.519 223.841C344.121 223.841 340.767 225.57 340.767 228.315C340.767 231.672 343.003 232.275 363.971 234.406C375.986 235.623 379.44 236.336 385.241 238.467C393.49 241.614 397.76 247.715 397.76 256.149C397.76 272.303 383.207 280.023 352.772 280.023C338.219 280.023 327.222 278.093 320.403 274.333C313.072 270.373 310.121 266 309.204 257.566H345.239V257.587Z" stroke="white" stroke-miterlimit="10"/>
<path d="M427.893 227.41H402.04V210.14H480.011V227.41H453.846V277.902H427.893V227.41Z" stroke="white" stroke-miterlimit="10"/>
<path d="M487.635 210.14H537.92C553.389 210.14 557.871 210.955 562.04 214.302C566.21 217.549 568.456 222.937 568.456 229.642C568.456 235.13 567.026 239.804 564.588 242.548C562.453 244.881 560.107 245.906 555.121 247.022C565.303 249.967 566.421 251.998 567.036 269.378C567.237 274.555 567.338 275.369 568.869 277.912H541.687C541.284 275.168 541.183 274.354 540.871 268.976C540.367 254.852 539.34 253.636 528.352 253.636H513.588V277.922H487.635V210.15V210.14ZM530.8 239.302C535.08 239.302 536.903 239 538.131 238.186C539.763 237.07 540.78 235.04 540.78 232.496C540.78 227.621 538.434 225.993 531.011 225.993H513.608V239.302H530.81H530.8Z" stroke="white" stroke-miterlimit="10"/>
<path d="M604.903 210.14V244.891C604.903 257.697 609.073 262.773 619.768 262.773C630.464 262.773 634.532 257.697 634.532 244.891V210.14H660.486V249.354C660.486 260.532 658.25 267.036 652.65 271.81C646.336 277.399 635.55 280.043 619.768 280.043C602.869 280.043 591.881 277.098 585.667 270.795C580.883 266.02 578.95 259.818 578.95 249.354V210.14H604.903V210.14Z" stroke="white" stroke-miterlimit="10"/>
<path d="M763.493 252.611C762.476 262.462 759.324 267.85 751.69 272.625C743.14 278.012 733.572 280.043 716.673 280.043C699.773 280.043 690.306 277.5 682.27 271.107C674.223 264.804 670.154 255.455 670.154 243.674C670.154 231.893 674.324 222.645 681.957 217.056C690.508 210.754 701.304 208.009 717.277 208.009C735.697 208.009 748.125 211.668 756.162 219.187C760.331 223.248 762.476 228.023 763.493 236.055H733.663C731.528 228.234 727.046 225.289 717.378 225.289C705.161 225.289 698.746 231.491 698.746 243.272C698.746 255.667 705.564 262.784 717.378 262.784C722.363 262.784 726.845 261.567 729.292 259.426C730.923 257.999 731.941 256.38 733.673 252.621H763.503L763.493 252.611Z" stroke="white" stroke-miterlimit="10"/>
<path d="M793.918 227.41H768.066V210.14H846.037V227.41H819.872V277.902H793.918V227.41Z" stroke="white" stroke-miterlimit="10"/>
<path d="M853.771 210.14H879.725V277.912H853.771V210.14Z" stroke="white" stroke-miterlimit="10"/>
<path d="M972.359 217.559C979.379 223.148 982.843 231.984 982.843 244.076C982.843 268.563 968.189 280.144 936.939 280.144C919.939 280.144 909.253 277.299 900.904 270.594C893.774 264.804 890.42 256.27 890.42 243.463C890.42 232.084 894.086 223.037 900.904 217.559C909.152 210.854 920.039 208.009 936.637 208.009C953.234 208.009 964.02 210.854 972.369 217.559H972.359ZM919.022 243.775C919.022 256.471 924.924 262.874 936.737 262.874C948.551 262.874 954.241 256.37 954.241 244.076C954.241 231.783 948.239 225.279 936.627 225.279C925.014 225.279 919.012 231.783 919.012 243.775H919.022Z" stroke="white" stroke-miterlimit="10"/>
<path d="M993.327 210.14H1022.64L1043.91 235.844C1049 242.347 1049.51 243.162 1054.1 252.611H1054.91C1052.68 246.821 1051.45 239.503 1051.45 231.783V210.14H1077.4V277.912H1048.9L1026.5 251.394C1022.43 246.318 1020.29 242.659 1017.03 234.939H1016.22C1018.57 241.644 1019.27 245.916 1019.27 253.636V277.922H993.317V210.15L993.327 210.14Z" stroke="white" stroke-miterlimit="10"/>
</g>
<mask id="mask3_815_3128" style="mask-type:luminance" maskUnits="userSpaceOnUse" x="0" y="284" width="1090" height="18">
<path d="M1090 284.637H0V301.323H1090V284.637Z" fill="white"/>
</mask>
<g mask="url(#mask3_815_3128)">
<path d="M105.938 269.297C104.921 279.148 101.769 284.536 94.135 289.311C85.5846 294.699 76.017 296.73 59.1176 296.73C42.2182 296.73 32.7514 294.186 24.7146 287.793C16.6677 281.49 12.599 272.142 12.599 260.361C12.599 248.58 16.7685 239.332 24.4024 233.743C32.9528 227.44 43.749 224.696 59.7219 224.696C78.142 224.696 90.5698 228.355 98.6066 235.874C102.776 239.935 104.921 244.71 105.938 252.741H76.1076C73.9725 244.921 69.4909 241.975 59.8226 241.975C47.6063 241.975 41.191 248.178 41.191 259.959C41.191 272.353 48.0091 279.47 59.8226 279.47C64.8078 279.47 69.2895 278.254 71.7368 276.113C73.3683 274.685 74.3855 273.067 76.1177 269.307H105.948L105.938 269.297Z" stroke="white" stroke-miterlimit="10"/>
<path d="M194.494 234.235C201.514 239.824 204.978 248.66 204.978 260.753C204.978 285.24 190.324 296.82 159.074 296.82C142.074 296.82 131.388 293.975 123.039 287.271C115.909 281.481 112.555 272.946 112.555 260.14C112.555 248.761 116.221 239.714 123.039 234.235C131.287 227.531 142.174 224.686 158.772 224.686C175.369 224.686 186.155 227.531 194.504 234.235H194.494ZM141.157 260.451C141.157 273.147 147.059 279.55 158.872 279.55C170.686 279.55 176.376 273.047 176.376 260.753C176.376 248.459 170.374 241.955 158.762 241.955C147.149 241.955 141.147 248.459 141.147 260.451H141.157Z" stroke="white" stroke-miterlimit="10"/>
<path d="M215.462 226.827H244.779L266.049 252.53C271.135 259.034 271.649 259.848 276.231 269.297H277.047C274.811 263.507 273.583 256.189 273.583 248.469V226.827H299.536V294.599H271.035L248.636 268.081C244.568 263.005 242.422 259.346 239.17 251.626H238.354C240.69 258.33 241.405 262.603 241.405 270.323V294.609H215.452V226.837L215.462 226.827Z" stroke="white" stroke-miterlimit="10"/>
<path d="M345.239 274.273C347.585 278.033 350.939 279.45 357.354 279.45C363.77 279.45 366.62 277.922 366.62 275.077C366.62 273.147 365.603 272.132 363.468 271.519C361.333 270.906 360.003 270.705 344.232 269.187C336.598 268.473 328.249 266.855 322.851 265.025C314.401 262.381 309.819 256.39 309.819 248.057C309.819 232.717 324.784 224.686 353.286 224.686C367.738 224.686 378.433 226.917 385.352 231.391C390.952 234.949 393.5 238.809 395.635 246.73H361.735C360.104 242.458 356.236 240.528 349.519 240.528C344.121 240.528 340.767 242.257 340.767 245.001C340.767 248.359 343.003 248.962 363.971 251.093C375.986 252.309 379.44 253.023 385.241 255.154C393.49 258.3 397.76 264.402 397.76 272.836C397.76 288.989 383.207 296.71 352.772 296.71C338.219 296.71 327.222 294.78 320.403 291.02C313.072 287.059 310.121 282.687 309.204 274.253H345.239V274.273Z" stroke="white" stroke-miterlimit="10"/>
<path d="M427.893 244.097H402.04V226.827H480.011V244.097H453.846V294.589H427.893V244.097Z" stroke="white" stroke-miterlimit="10"/>
<path d="M487.635 226.827H537.92C553.389 226.827 557.871 227.641 562.04 230.989C566.21 234.235 568.456 239.623 568.456 246.328C568.456 251.817 567.026 256.491 564.588 259.235C562.453 261.567 560.107 262.593 555.121 263.708C565.303 266.654 566.421 268.684 567.036 286.064C567.237 291.241 567.338 292.055 568.869 294.599H541.687C541.284 291.854 541.183 291.04 540.871 285.662C540.367 271.539 539.34 270.323 528.352 270.323H513.588V294.609H487.635V226.837V226.827ZM530.8 255.988C535.08 255.988 536.903 255.687 538.131 254.872C539.763 253.757 540.78 251.726 540.78 249.183C540.78 244.308 538.434 242.679 531.011 242.679H513.608V255.988H530.81H530.8Z" stroke="white" stroke-miterlimit="10"/>
<path d="M604.903 226.827V261.577C604.903 274.384 609.073 279.46 619.768 279.46C630.464 279.46 634.532 274.384 634.532 261.577V226.827H660.486V266.04C660.486 277.218 658.25 283.722 652.65 288.497C646.336 294.086 635.55 296.73 619.768 296.73C602.869 296.73 591.881 293.784 585.667 287.482C580.883 282.707 578.95 276.505 578.95 266.04V226.827H604.903V226.827Z" stroke="white" stroke-miterlimit="10"/>
<path d="M763.493 269.297C762.476 279.148 759.324 284.536 751.69 289.311C743.14 294.699 733.572 296.73 716.673 296.73C699.773 296.73 690.306 294.186 682.27 287.793C674.223 281.491 670.154 272.142 670.154 260.361C670.154 248.58 674.324 239.332 681.957 233.743C690.508 227.44 701.304 224.696 717.277 224.696C735.697 224.696 748.125 228.355 756.162 235.874C760.331 239.935 762.476 244.71 763.493 252.741H733.663C731.528 244.921 727.046 241.976 717.378 241.976C705.161 241.976 698.746 248.178 698.746 259.959C698.746 272.353 705.564 279.47 717.378 279.47C722.363 279.47 726.845 278.254 729.292 276.113C730.923 274.685 731.941 273.067 733.673 269.307H763.503L763.493 269.297Z" stroke="white" stroke-miterlimit="10"/>
<path d="M793.918 244.097H768.066V226.827H846.037V244.097H819.872V294.589H793.918V244.097Z" stroke="white" stroke-miterlimit="10"/>
<path d="M853.771 226.827H879.725V294.599H853.771V226.827V226.827Z" stroke="white" stroke-miterlimit="10"/>
<path d="M972.359 234.235C979.379 239.824 982.843 248.66 982.843 260.753C982.843 285.24 968.189 296.82 936.939 296.82C919.939 296.82 909.253 293.975 900.904 287.271C893.774 281.481 890.42 272.946 890.42 260.14C890.42 248.761 894.086 239.714 900.904 234.235C909.152 227.531 920.039 224.686 936.637 224.686C953.234 224.686 964.02 227.531 972.369 234.235H972.359ZM919.022 260.451C919.022 273.147 924.924 279.55 936.737 279.55C948.551 279.55 954.241 273.047 954.241 260.753C954.241 248.459 948.239 241.955 936.627 241.955C925.014 241.955 919.012 248.459 919.012 260.451H919.022Z" stroke="white" stroke-miterlimit="10"/>
<path d="M993.327 226.827H1022.64L1043.91 252.53C1049 259.034 1049.51 259.848 1054.1 269.297H1054.91C1052.68 263.507 1051.45 256.189 1051.45 248.469V226.827H1077.4V294.599H1048.9L1026.5 268.081C1022.43 263.005 1020.29 259.346 1017.03 251.626H1016.22C1018.57 258.33 1019.27 262.603 1019.27 270.323V294.609H993.317V226.837L993.327 226.827Z" stroke="white" stroke-miterlimit="10"/>
</g>
<mask id="mask4_815_3128" style="mask-type:luminance" maskUnits="userSpaceOnUse" x="0" y="301" width="1090" height="18">
<path d="M1090 301.323H0V318.01H1090V301.323Z" fill="white"/>
</mask>
<g mask="url(#mask4_815_3128)">
<path d="M105.938 285.974C104.921 295.825 101.769 301.213 94.135 305.988C85.5846 311.376 76.017 313.406 59.1176 313.406C42.2182 313.406 32.7514 310.863 24.7146 304.47C16.6677 298.167 12.599 288.818 12.599 277.037C12.599 265.256 16.7685 256.008 24.4024 250.419C32.9528 244.117 43.749 241.372 59.7219 241.372C78.142 241.372 90.5698 245.031 98.6066 252.55C102.776 256.611 104.921 261.386 105.938 269.418H76.1076C73.9725 261.597 69.4909 258.652 59.8226 258.652C47.6063 258.652 41.191 264.854 41.191 276.635C41.191 289.03 48.0091 296.146 59.8226 296.146C64.8078 296.146 69.2895 294.93 71.7368 292.789C73.3683 291.362 74.3855 289.743 76.1177 285.984H105.948L105.938 285.974Z" stroke="white" stroke-miterlimit="10"/>
<path d="M194.494 250.922C201.514 256.511 204.978 265.347 204.978 277.44C204.978 301.927 190.324 313.507 159.074 313.507C142.074 313.507 131.388 310.662 123.039 303.957C115.909 298.167 112.555 289.633 112.555 276.826C112.555 265.447 116.221 256.4 123.039 250.922C131.287 244.217 142.174 241.372 158.772 241.372C175.369 241.372 186.155 244.217 194.504 250.922H194.494ZM141.157 277.138C141.157 289.834 147.059 296.237 158.872 296.237C170.686 296.237 176.376 289.733 176.376 277.44C176.376 265.146 170.374 258.642 158.762 258.642C147.149 258.642 141.147 265.146 141.147 277.138H141.157Z" stroke="white" stroke-miterlimit="10"/>
<path d="M215.462 243.503H244.779L266.049 269.207C271.135 275.711 271.649 276.525 276.231 285.974H277.047C274.811 280.184 273.583 272.866 273.583 265.146V243.503H299.536V311.275H271.035L248.636 284.758C244.568 279.681 242.422 276.022 239.17 268.302H238.354C240.69 275.007 241.405 279.279 241.405 286.999V311.285H215.452V243.514L215.462 243.503Z" stroke="white" stroke-miterlimit="10"/>
<path d="M345.239 290.95C347.585 294.709 350.939 296.126 357.354 296.126C363.77 296.126 366.62 294.599 366.62 291.754C366.62 289.824 365.603 288.809 363.468 288.195C361.333 287.582 360.003 287.381 344.232 285.863C336.598 285.15 328.249 283.531 322.851 281.702C314.401 279.058 309.819 273.067 309.819 264.734C309.819 249.394 324.784 241.362 353.286 241.362C367.738 241.362 378.433 243.594 385.352 248.067C390.952 251.626 393.5 255.486 395.635 263.407H361.735C360.104 259.135 356.236 257.205 349.519 257.205C344.121 257.205 340.767 258.934 340.767 261.678C340.767 265.035 343.003 265.638 363.971 267.769C375.986 268.986 379.44 269.699 385.241 271.83C393.49 274.977 397.76 281.078 397.76 289.512C397.76 305.666 383.207 313.386 352.772 313.386C338.219 313.386 327.222 311.456 320.403 307.697C313.072 303.736 310.121 299.363 309.204 290.93H345.239V290.95Z" stroke="white" stroke-miterlimit="10"/>
<path d="M427.893 260.773H402.04V243.503H480.011V260.773H453.846V311.265H427.893V260.773Z" stroke="white" stroke-miterlimit="10"/>
<path d="M487.635 243.503H537.92C553.389 243.503 557.871 244.318 562.04 247.665C566.21 250.912 568.456 256.3 568.456 263.005C568.456 268.493 567.026 273.167 564.588 275.912C562.453 278.244 560.107 279.269 555.121 280.385C565.303 283.33 566.421 285.361 567.036 302.741C567.237 307.918 567.338 308.732 568.869 311.275H541.687C541.284 308.531 541.183 307.717 540.871 302.339C540.367 288.215 539.34 286.999 528.352 286.999H513.588V311.285H487.635V243.514V243.503ZM530.8 272.665C535.08 272.665 536.903 272.363 538.131 271.549C539.763 270.433 540.78 268.403 540.78 265.859C540.78 260.984 538.434 259.356 531.011 259.356H513.608V272.665H530.81H530.8Z" stroke="white" stroke-miterlimit="10"/>
<path d="M604.903 243.503V278.254C604.903 291.06 609.073 296.137 619.768 296.137C630.464 296.137 634.532 291.06 634.532 278.254V243.503H660.486V282.717C660.486 293.895 658.25 300.399 652.65 305.173C646.336 310.762 635.55 313.406 619.768 313.406C602.869 313.406 591.881 310.461 585.667 304.158C580.883 299.383 578.95 293.181 578.95 282.717V243.503H604.903Z" stroke="white" stroke-miterlimit="10"/>
<path d="M763.493 285.974C762.476 295.825 759.324 301.213 751.69 305.988C743.14 311.376 733.572 313.406 716.673 313.406C699.773 313.406 690.306 310.863 682.27 304.47C674.223 298.167 670.154 288.819 670.154 277.037C670.154 265.256 674.324 256.008 681.957 250.419C690.508 244.117 701.304 241.372 717.277 241.372C735.697 241.372 748.125 245.031 756.162 252.55C760.331 256.611 762.476 261.386 763.493 269.418H733.663C731.528 261.597 727.046 258.652 717.378 258.652C705.161 258.652 698.746 264.854 698.746 276.635C698.746 289.03 705.564 296.147 717.378 296.147C722.363 296.147 726.845 294.93 729.292 292.789C730.923 291.362 731.941 289.743 733.673 285.984H763.503L763.493 285.974Z" stroke="white" stroke-miterlimit="10"/>
<path d="M793.918 260.773H768.066V243.503H846.037V260.773H819.872V311.265H793.918V260.773Z" stroke="white" stroke-miterlimit="10"/>
<path d="M853.771 243.503H879.725V311.275H853.771V243.503Z" stroke="white" stroke-miterlimit="10"/>
<path d="M972.359 250.922C979.379 256.511 982.843 265.347 982.843 277.44C982.843 301.927 968.189 313.507 936.939 313.507C919.939 313.507 909.253 310.662 900.904 303.957C893.774 298.167 890.42 289.633 890.42 276.826C890.42 265.447 894.086 256.4 900.904 250.922C909.152 244.217 920.039 241.372 936.637 241.372C953.234 241.372 964.02 244.217 972.369 250.922H972.359ZM919.022 277.138C919.022 289.834 924.924 296.237 936.737 296.237C948.551 296.237 954.241 289.733 954.241 277.44C954.241 265.146 948.239 258.642 936.627 258.642C925.014 258.642 919.012 265.146 919.012 277.138H919.022Z" stroke="white" stroke-miterlimit="10"/>
<path d="M993.327 243.503H1022.64L1043.91 269.207C1049 275.711 1049.51 276.525 1054.1 285.974H1054.91C1052.68 280.184 1051.45 272.866 1051.45 265.146V243.503H1077.4V311.275H1048.9L1026.5 284.758C1022.43 279.681 1020.29 276.022 1017.03 268.302H1016.22C1018.57 275.007 1019.27 279.279 1019.27 286.999V311.285H993.317V243.514L993.327 243.503Z" stroke="white" stroke-miterlimit="10"/>
</g>
<path d="M838.503 72.0941C840.991 74.6473 841.092 77.9846 839.51 79.5327L845.321 85.3428C845.321 85.3428 847.658 82.6187 849.501 84.5386C851.334 86.4687 848.957 88.7304 848.957 88.7304L853.993 93.6962L856.319 93.9475L864.084 86.4385L863.842 84.3678L858.615 78.9396C858.615 78.9396 856.46 79.9649 855.433 77.8138C854.406 75.6626 855.413 75.2404 852.804 72.5062C850.055 69.6112 848.071 70.2746 848.071 70.2746C848.071 70.2746 840.004 60.7653 829.832 68.9276C829.832 68.9276 835.27 68.7869 838.503 72.1041V72.0941Z" fill="white"/>
<path d="M846.339 128.979C846.339 128.979 846.308 128.949 846.288 128.929C846.349 129.019 846.379 129.04 846.339 128.979Z" fill="white"/>
<path d="M844.838 110.423C843.69 110.363 838.211 105.186 832.269 99.0339L843.72 87.0215L837.919 81.0908L825.713 92.0275C820.023 85.765 815.289 80.0453 815.289 78.9094C815.309 75.3912 815.873 70.2143 810.324 67.5103C805.782 65.2988 802.157 67.5304 802.177 67.8018C802.227 68.4049 807.988 72.1242 808.32 73.6622C808.763 75.7229 804.423 80.357 802.7 79.985C801.26 79.6734 797.282 76.0446 796.809 76.3763C796.335 76.708 796.124 80.4474 799.538 83.5736C802.771 86.5189 805.289 85.4232 808.854 86.72C809.952 87.1221 814.675 91.7159 819.932 97.1943L797.433 117.359C796.345 118.334 796.235 120.003 797.191 121.108L801.925 126.587C802.952 127.783 804.795 127.833 805.893 126.697L826.911 104.643C832.038 110.252 836.318 115.278 836.65 116.394C837.748 120.023 836.509 122.465 839.279 125.853C842.099 129.301 845.765 128.537 846.268 128.929C845.815 128.296 843.247 124.184 843.045 122.908C842.763 121.169 847.648 117.108 849.682 117.661C851.203 118.073 854.607 124.034 855.201 124.104C855.473 124.144 857.9 120.646 855.947 116.002C853.55 110.322 848.343 110.604 844.818 110.423H844.838Z" fill="white"/>
<path d="M251.497 72.0941C249.009 74.6473 248.908 77.9846 250.489 79.5327L244.678 85.3428C244.678 85.3428 242.342 82.6187 240.499 84.5386C238.666 86.4687 241.043 88.7304 241.043 88.7304L236.007 93.6962L233.681 93.9475L225.916 86.4385L226.158 84.3678L231.385 78.9396C231.385 78.9396 233.54 79.9649 234.567 77.8137C235.594 75.6626 234.587 75.2404 237.196 72.5062C239.945 69.6112 241.929 70.2746 241.929 70.2746C241.929 70.2746 249.996 60.7653 260.168 68.9276C260.168 68.9276 254.729 68.7869 251.497 72.1041V72.0941Z" fill="white"/>
<path d="M243.661 128.979C243.661 128.979 243.691 128.949 243.712 128.929C243.651 129.019 243.621 129.04 243.661 128.979Z" fill="white"/>
<path d="M245.162 110.423C246.31 110.363 251.789 105.186 257.731 99.0339L246.28 87.0215L252.081 81.0908L264.287 92.0275C269.977 85.765 274.711 80.0453 274.711 78.9094C274.69 75.3912 274.126 70.2143 279.676 67.5103C284.218 65.2988 287.843 67.5304 287.823 67.8018C287.773 68.4049 282.012 72.1242 281.68 73.6622C281.237 75.7229 285.577 80.357 287.299 79.985C288.74 79.6734 292.718 76.0446 293.191 76.3763C293.664 76.708 293.876 80.4474 290.462 83.5736C287.229 86.5189 284.711 85.4232 281.146 86.72C280.048 87.1221 275.325 91.7159 270.068 97.1943L292.567 117.359C293.654 118.334 293.765 120.003 292.808 121.108L288.075 126.587C287.048 127.783 285.205 127.833 284.107 126.697L263.088 104.643C257.962 110.252 253.682 115.278 253.35 116.394C252.252 120.023 253.491 122.465 250.721 125.853C247.901 129.301 244.235 128.537 243.732 128.929C244.185 128.296 246.753 124.184 246.955 122.908C247.237 121.169 242.352 117.108 240.318 117.661C238.797 118.073 235.393 124.034 234.799 124.104C234.527 124.144 232.1 120.646 234.053 116.002C236.45 110.322 241.657 110.604 245.182 110.423H245.162Z" fill="white"/>
<rect x="261.354" y="251.174" width="567.292" height="48.3913" fill="white"/>
<path d="M356.577 290.696H366.837L369.285 283.1C370.077 280.328 370.437 278.6 370.545 276.764H370.869C371.013 278.96 371.517 281.336 372.129 283.1L374.685 290.696H385.197L393.261 266.684H383.541L380.733 275.216C380.085 277.088 379.689 279.572 379.689 281.66H379.401C379.257 279.212 378.933 277.628 378.177 275.216L375.225 266.684H366.297L363.381 275.216C362.661 277.304 362.337 279.248 362.337 281.66H362.049C361.905 278.708 361.689 277.376 360.969 275.216L357.909 266.684H348.189L356.577 290.696ZM395.641 290.696H423.937V284.576H404.821V281.588H419.725V275.468H404.821V272.804H422.821V266.684H395.641V290.696ZM427.202 272.696H429.182C429.002 273.632 428.498 274.064 427.202 274.388L427.778 276.512C432.674 275.324 433.898 274.208 433.934 270.824V266.684H427.202V272.696ZM438.215 290.696H464.567V284.576H447.395V266.684H438.215V290.696ZM467.535 290.696H493.887V284.576H476.715V266.684H467.535V290.696ZM507.649 290.696H528.205C532.417 290.696 534.397 290.372 536.017 289.364C537.745 288.32 538.825 286.016 538.825 283.46C538.825 281.948 538.465 280.652 537.709 279.536C537.061 278.6 536.449 278.168 534.793 277.412C536.665 276.188 537.349 275 537.349 272.912C537.349 270.464 536.053 268.376 534.001 267.548C532.381 266.9 530.509 266.684 526.621 266.684H507.649V290.696ZM516.829 284.864V281.48H524.533C527.413 281.516 527.557 281.516 528.025 281.696C528.673 281.948 528.997 282.452 528.997 283.136C528.997 283.748 528.709 284.288 528.241 284.54C527.737 284.828 527.701 284.828 524.533 284.864H516.829ZM516.829 275.612V272.48H523.525C526.801 272.48 527.557 272.768 527.557 274.028C527.557 274.784 527.125 275.324 526.405 275.468C525.829 275.576 525.397 275.612 523.489 275.612H516.829ZM542.488 290.696H570.784V284.576H551.668V281.588H566.572V275.468H551.668V272.804H569.668V266.684H542.488V290.696ZM592.402 290.696H601.582V272.804H610.834V266.684H583.258V272.804H592.402V290.696ZM613.539 290.696H622.719V281.264H633.447V290.696H642.627V266.684H633.447V275.144H622.719V266.684H613.539V290.696ZM647.36 290.696H675.656V284.576H656.54V281.588H671.444V275.468H656.54V272.804H674.54V266.684H647.36V290.696ZM679.317 290.696H688.497V282.092H693.717C697.605 282.092 697.965 282.524 698.145 287.528C698.253 289.436 698.289 289.724 698.433 290.696H708.045C707.505 289.796 707.469 289.508 707.397 287.672C707.181 281.516 706.785 280.796 703.185 279.752C704.949 279.356 705.777 278.996 706.533 278.168C707.397 277.196 707.901 275.54 707.901 273.596C707.901 271.22 707.109 269.312 705.633 268.16C704.157 266.972 702.573 266.684 697.101 266.684H679.317V290.696ZM688.497 277.016V272.3H694.653C697.281 272.3 698.109 272.876 698.109 274.604C698.109 275.504 697.749 276.224 697.173 276.62C696.741 276.908 696.093 277.016 694.581 277.016H688.497ZM711.942 290.696H740.238V284.576H721.122V281.588H736.026V275.468H721.122V272.804H739.122V266.684H711.942V290.696ZM470.071 326.496C470.395 329.484 471.439 331.032 474.031 332.436C476.443 333.768 480.331 334.452 485.479 334.452C496.243 334.452 501.391 331.716 501.391 325.992C501.391 323.004 499.879 320.844 496.963 319.728C494.911 318.972 493.687 318.72 489.439 318.288C482.023 317.532 481.231 317.316 481.231 316.128C481.231 315.156 482.419 314.544 484.327 314.544C486.703 314.544 488.071 315.228 488.647 316.74H500.635C499.879 313.932 498.979 312.564 496.999 311.304C494.551 309.72 490.771 308.928 485.659 308.928C475.579 308.928 470.287 311.772 470.287 317.208C470.287 320.16 471.907 322.284 474.895 323.22C476.803 323.868 479.755 324.444 482.455 324.696C488.035 325.236 488.503 325.308 489.259 325.524C490.015 325.74 490.375 326.1 490.375 326.784C490.375 327.792 489.259 328.332 487.099 328.332C484.831 328.332 483.643 327.828 482.815 326.496H470.071ZM520.137 308.928C514.269 308.928 510.417 309.936 507.501 312.312C505.089 314.256 503.793 317.46 503.793 321.492C503.793 326.028 504.981 329.052 507.501 331.104C510.453 333.48 514.233 334.488 520.245 334.488C531.297 334.488 536.481 330.384 536.481 321.708C536.481 317.424 535.257 314.292 532.773 312.312C529.821 309.936 526.077 308.928 520.137 308.928ZM520.137 315.048C524.241 315.048 526.365 317.316 526.365 321.708C526.365 326.064 524.241 328.368 520.173 328.368C515.997 328.368 513.909 326.1 513.909 321.6C513.909 317.352 516.105 315.048 520.137 315.048ZM555.539 308.928C549.671 308.928 545.819 309.936 542.903 312.312C540.491 314.256 539.195 317.46 539.195 321.492C539.195 326.028 540.383 329.052 542.903 331.104C545.855 333.48 549.635 334.488 555.647 334.488C566.699 334.488 571.883 330.384 571.883 321.708C571.883 317.424 570.659 314.292 568.175 312.312C565.223 309.936 561.479 308.928 555.539 308.928ZM555.539 315.048C559.643 315.048 561.767 317.316 561.767 321.708C561.767 326.064 559.643 328.368 555.575 328.368C551.399 328.368 549.311 326.1 549.311 321.6C549.311 317.352 551.507 315.048 555.539 315.048ZM575.606 333.696H584.786V325.092C584.786 322.356 584.534 320.844 583.706 318.468H583.994C585.146 321.204 585.902 322.5 587.342 324.3L595.262 333.696H605.342V309.684H596.162V317.352C596.162 320.088 596.594 322.68 597.386 324.732H597.098C595.478 321.384 595.298 321.096 593.498 318.792L585.974 309.684H575.606V333.696ZM610.311 333.696H618.375V326.46H610.311V333.696ZM611.247 324.696H617.475L618.771 309.684H609.915L611.247 324.696Z" fill="black"/>
<path d="M257.511 8.44928V16.4979L265.574 8.44928H257.511Z" fill="white"/>
<path d="M273.195 8.44928L257.511 24.0975V32.153L281.259 8.44928H273.195Z" fill="white"/>
<path d="M288.873 8.44928L260.196 37.072H268.26L296.937 8.44928H288.873Z" fill="white"/>
<path d="M304.558 8.44928L275.881 37.072H283.945L312.621 8.44928H304.558Z" fill="white"/>
<path d="M320.235 8.44928L291.559 37.072H299.622L328.299 8.44928H320.235Z" fill="white"/>
<path d="M335.92 8.44928L307.243 37.072H315.307L343.984 8.44928H335.92Z" fill="white"/>
<path d="M351.598 8.44928L322.921 37.072H330.985L359.668 8.44928H351.598Z" fill="white"/>
<path d="M367.282 8.44928L338.599 37.072H346.669L375.346 8.44928H367.282Z" fill="white"/>
<path d="M382.96 8.44928L354.283 37.072H362.347L391.024 8.44928H382.96Z" fill="white"/>
<path d="M398.638 8.44928L369.968 37.072H378.032L406.709 8.44928H398.638Z" fill="white"/>
<path d="M414.323 8.44928L385.646 37.072H393.71L422.386 8.44928H414.323Z" fill="white"/>
<path d="M430.007 8.44928L401.33 37.072H409.394L438.071 8.44928H430.007Z" fill="white"/>
<path d="M445.685 8.44928L417.008 37.072H425.072L453.749 8.44928H445.685Z" fill="white"/>
<path d="M461.37 8.44928L432.686 37.072H440.75L469.433 8.44928H461.37Z" fill="white"/>
<path d="M477.047 8.44928L448.371 37.072H456.434L485.111 8.44928H477.047Z" fill="white"/>
<path d="M492.725 8.44928L464.048 37.072H472.119L500.789 8.44928H492.725Z" fill="white"/>
<path d="M508.41 8.44928L479.733 37.072H487.797L516.474 8.44928H508.41Z" fill="white"/>
<path d="M524.087 8.44928L495.411 37.072H503.481L532.158 8.44928H524.087Z" fill="white"/>
<path d="M539.71 16.5739L547.774 8.52528H547.76L547.836 8.44928H539.772L511.095 37.072H519.159L539.71 16.5532V16.5739Z" fill="white"/>
<path d="M563.458 8.52527H555.394L550.522 13.389V13.3683L526.773 37.072H534.837L539.71 32.2083V32.229L563.458 8.52527Z" fill="white"/>
<path d="M571.079 8.52527L550.522 29.0372V29.0233L542.458 37.072H542.472L542.395 37.1411H550.459L579.136 8.52527H571.079Z" fill="white"/>
<path d="M586.757 8.52527L558.08 37.1411H566.144L594.821 8.52527H586.757Z" fill="white"/>
<path d="M602.435 8.52527L573.758 37.1411H581.822L610.498 8.52527H602.435Z" fill="white"/>
<path d="M618.119 8.52527L589.443 37.1411H597.506L626.183 8.52527H618.119Z" fill="white"/>
<path d="M633.797 8.52527L605.12 37.1411H613.184L641.868 8.52527H633.797Z" fill="white"/>
<path d="M649.482 8.52527L620.805 37.1411H628.869L657.545 8.52527H649.482Z" fill="white"/>
<path d="M665.159 8.52527L636.483 37.1411H644.546L673.223 8.52527H665.159Z" fill="white"/>
<path d="M680.837 8.52527L652.167 37.1411H660.231L688.908 8.52527H680.837Z" fill="white"/>
<path d="M696.522 8.52527L667.845 37.1411H675.909L704.586 8.52527H696.522Z" fill="white"/>
<path d="M712.206 8.52527L683.53 37.1411H691.594L720.27 8.52527H712.206Z" fill="white"/>
<path d="M727.884 8.52527L699.207 37.1411H707.271L735.948 8.52527H727.884Z" fill="white"/>
<path d="M743.569 8.52527L714.885 37.1411H722.949L751.633 8.52527H743.569Z" fill="white"/>
<path d="M759.247 8.52527L730.57 37.1411H738.634L767.31 8.52527H759.247Z" fill="white"/>
<path d="M774.924 8.52527L746.247 37.1411H754.318L782.988 8.52527H774.924Z" fill="white"/>
<path d="M790.609 8.52527L761.932 37.1411H769.996L798.673 8.52527H790.609Z" fill="white"/>
<path d="M806.287 8.52527L777.61 37.1411H785.681L814.357 8.52527H806.287Z" fill="white"/>
<path d="M821.971 8.52527L793.295 37.1411H801.358L830.035 8.52527H821.971Z" fill="white"/>
<path d="M808.972 37.148H817.036L832.721 21.4929V13.4443L808.972 37.148Z" fill="white"/>
<path d="M832.721 37.148V29.0993L824.657 37.148H832.721Z" fill="white"/>
</g>
<defs>
<clipPath id="clip0_815_3128">
<rect width="1090" height="318" fill="white"/>
</clipPath>
</defs>
</svg>
