<svg width="78" height="61" viewBox="0 0 78 61" fill="none" xmlns="http://www.w3.org/2000/svg">
<path d="M77.423 48.748H0V60.218H77.423V48.748Z" fill="black"/>
<path d="M77.423 0H0V45.88H77.423V0Z" fill="black"/>
<path d="M71.688 20.073V5.735H57.3499L43.0159 15.293V5.735H34.416V15.293L20.0779 5.735H5.73999V20.073H14.3398V11.473L31.5449 22.943L14.3379 34.409V25.809H5.73804V40.145H20.0759L34.4138 30.587V40.145H43.0139V30.587L57.3518 40.145H71.6899V22.94H54.4849L63.085 28.675V34.409L45.8799 22.939L63.085 11.469V20.069L71.688 20.073Z" fill="#E4E4E5"/>
<path d="M5.45703 52.427H7.02881V53.975L8.62891 52.427H10.762L9.05493 53.894L10.8728 56.539H8.88184L7.7478 54.813L7.02686 55.497V56.539H5.45483L5.45703 52.427Z" fill="#E4E4E5"/>
<path d="M11.2568 52.427H15.9109V53.475H12.8289V53.931H15.3809V54.979H12.8289V55.491H16.1018V56.539H11.2568V52.427Z" fill="#E4E4E5"/>
<path d="M16.731 52.427H19.3159L19.741 53.592C19.8558 53.9177 19.9231 54.2581 19.9409 54.603H19.9968C20.0203 54.2589 20.0877 53.9191 20.197 53.592L20.604 52.427H23.168V56.539H21.5959V53.518H21.572C21.5443 53.8035 21.4841 54.085 21.3928 54.357L20.604 56.539H19.3159L18.5159 54.357C18.4248 54.0846 18.3627 53.8034 18.3308 53.518H18.3069V56.539H16.7349L16.731 52.427Z" fill="#E4E4E5"/>
<path d="M25.9399 55.309C26.0809 55.537 26.2849 55.623 26.6729 55.623C27.0429 55.623 27.2339 55.531 27.2339 55.358C27.2339 55.241 27.172 55.179 27.043 55.143C26.6592 55.0639 26.2695 55.0164 25.8779 55.001C25.4389 54.9622 25.0053 54.8774 24.584 54.748C24.3538 54.6937 24.1494 54.5614 24.0056 54.3737C23.8618 54.186 23.7874 53.9543 23.7949 53.718C23.7949 52.788 24.701 52.301 26.427 52.301C27.0992 52.2541 27.7712 52.395 28.3679 52.708C28.5319 52.8098 28.6724 52.9454 28.7798 53.1058C28.8872 53.2661 28.9592 53.4476 28.991 53.638H26.938C26.838 53.379 26.605 53.262 26.198 53.262C25.872 53.262 25.668 53.367 25.668 53.534C25.668 53.734 25.804 53.774 27.074 53.903C27.5131 53.9214 27.947 54.0046 28.3618 54.15C28.5884 54.2209 28.7854 54.3644 28.9224 54.5583C29.0593 54.7522 29.1287 54.9858 29.1199 55.223C29.1199 56.203 28.239 56.671 26.396 56.671C25.7246 56.7121 25.053 56.5939 24.436 56.326C24.2382 56.2381 24.0694 56.0959 23.9492 55.9158C23.829 55.7358 23.7622 55.5254 23.7568 55.309H25.9399Z" fill="#E4E4E5"/>
<path d="M35.1159 56.526H34.438L34.228 56.082C34.0562 56.2618 33.8419 56.3956 33.605 56.471C33.1668 56.6109 32.7089 56.6784 32.249 56.671C30.505 56.671 29.531 55.894 29.531 54.502C29.5169 54.1807 29.5801 53.8607 29.7153 53.5689C29.8505 53.2771 30.0536 53.022 30.3078 52.825C30.9116 52.4468 31.6173 52.2638 32.3288 52.301C33.071 52.2623 33.8077 52.4469 34.4438 52.831C34.6275 52.9453 34.7833 53.0993 34.8996 53.2817C35.0159 53.4641 35.0898 53.6703 35.1159 53.885H33.2478C33.1799 53.7075 33.0544 53.558 32.8911 53.4607C32.7278 53.3635 32.5363 53.3241 32.3479 53.349C32.2002 53.3369 32.0518 53.3575 31.9131 53.4093C31.7743 53.4611 31.6485 53.5428 31.5449 53.6487C31.4413 53.7546 31.3625 53.882 31.3137 54.0219C31.2649 54.1618 31.2476 54.3107 31.2629 54.458C31.2507 54.6219 31.2754 54.7865 31.3352 54.9396C31.3949 55.0928 31.4881 55.2306 31.6081 55.3429C31.7281 55.4552 31.8718 55.5393 32.0285 55.5888C32.1853 55.6383 32.3511 55.652 32.5139 55.629C33.0439 55.629 33.34 55.475 33.458 55.149H32.7578V54.255H35.113L35.1159 56.526Z" fill="#E4E4E5"/>
<path d="M35.833 52.427H38.8779C39.8149 52.427 40.0859 52.477 40.3389 52.68C40.4709 52.7948 40.5745 52.9386 40.6418 53.1001C40.7091 53.2616 40.7382 53.4364 40.7268 53.611C40.7431 53.8911 40.6604 54.1679 40.4929 54.393C40.3381 54.5458 40.1362 54.6416 39.9199 54.665C40.5359 54.844 40.6039 54.965 40.6409 56.021C40.6529 56.335 40.659 56.385 40.752 56.539H39.106C39.0784 56.3592 39.062 56.1778 39.0569 55.996C39.0259 55.14 38.9639 55.065 38.2979 55.065H37.405V56.539H35.833V52.427ZM38.4458 54.196C38.5973 54.2155 38.7512 54.192 38.8899 54.128C38.9431 54.0883 38.9855 54.036 39.0134 53.9757C39.0414 53.9155 39.0539 53.8493 39.0498 53.783C39.0498 53.483 38.909 53.389 38.459 53.389H37.405V54.196H38.4458Z" fill="#E4E4E5"/>
<path d="M42.6809 52.427H44.7578L46.4038 56.539H44.6838L44.512 56.163H42.835L42.6809 56.539H41.0349L42.6809 52.427ZM44.2029 55.115L43.6729 53.604L43.1179 55.115H44.2029Z" fill="#E4E4E5"/>
<path d="M46.761 52.427H49.8308C50.3201 52.3593 50.8179 52.4594 51.2429 52.711C51.3989 52.8432 51.5216 53.0104 51.6008 53.1989C51.6801 53.3875 51.7137 53.592 51.699 53.796C51.72 54.0197 51.6802 54.2449 51.5835 54.4478C51.4868 54.6506 51.3369 54.8235 51.1499 54.948C50.7442 55.1446 50.2898 55.2176 49.843 55.158H48.333V56.539H46.761V52.427ZM49.3159 54.165C49.491 54.1879 49.669 54.1669 49.834 54.104C49.893 54.0642 49.9405 54.0097 49.9719 53.9458C50.0033 53.882 50.0174 53.811 50.0129 53.74C50.0129 53.44 49.853 53.346 49.323 53.346H48.3298V54.165H49.3159Z" fill="#E4E4E5"/>
<path d="M52.2349 52.427H53.8069V53.876H55.6438V52.427H57.2148V56.539H55.6438V54.924H53.8069V56.539H52.2349V52.427Z" fill="#E4E4E5"/>
<path d="M58.072 52.427H59.6438V56.539H58.072V52.427Z" fill="#E4E4E5"/>
<path d="M65.9438 55.009C65.9413 55.2562 65.874 55.4985 65.7485 55.7115C65.623 55.9246 65.444 56.101 65.229 56.223C64.5829 56.5818 63.844 56.7386 63.1079 56.673C62.371 56.7477 61.6318 56.5554 61.0249 56.131C60.7801 55.9308 60.586 55.6757 60.4585 55.3864C60.3309 55.097 60.2737 54.7817 60.291 54.466C60.2721 54.1592 60.3272 53.8524 60.4516 53.5714C60.576 53.2903 60.766 53.0433 61.0058 52.851C61.6387 52.437 62.391 52.2443 63.145 52.303C63.9877 52.2204 64.8301 52.4629 65.5 52.981C65.7685 53.256 65.9264 53.6201 65.9438 54.004H64.1379C64.0079 53.529 63.7378 53.351 63.1508 53.351C63.0009 53.3291 62.8478 53.3419 62.7036 53.3884C62.5593 53.4349 62.4278 53.5139 62.3188 53.6193C62.2099 53.7246 62.1264 53.8536 62.0752 53.9962C62.0239 54.1389 62.006 54.2914 62.0229 54.442C62.0031 54.5973 62.0182 54.7551 62.0671 54.9039C62.116 55.0526 62.1973 55.1886 62.3054 55.302C62.4134 55.4153 62.5453 55.5031 62.6916 55.559C62.8379 55.6149 62.9947 55.6374 63.1508 55.625C63.4071 55.641 63.6613 55.5706 63.8728 55.425C63.9907 55.3087 64.0813 55.1676 64.1379 55.012L65.9438 55.009Z" fill="#E4E4E5"/>
<path d="M68.5078 55.309C68.6488 55.537 68.853 55.623 69.241 55.623C69.611 55.623 69.802 55.531 69.802 55.358C69.802 55.241 69.7398 55.179 69.6108 55.143C69.2271 55.0637 68.8374 55.0162 68.4458 55.001C68.0068 54.9622 67.5732 54.8774 67.1519 54.748C66.9217 54.6937 66.7175 54.5614 66.5737 54.3737C66.4299 54.186 66.3556 53.9543 66.363 53.718C66.363 52.788 67.2689 52.301 68.9949 52.301C69.6671 52.2542 70.3392 52.3951 70.936 52.708C71.1002 52.8096 71.2407 52.9452 71.3481 53.1056C71.4556 53.266 71.5273 53.4475 71.5588 53.638H69.5059C69.4059 53.379 69.1728 53.262 68.7668 53.262C68.4398 53.262 68.2358 53.367 68.2358 53.534C68.2358 53.734 68.3718 53.774 69.6418 53.903C70.081 53.9214 70.5151 54.0046 70.9299 54.15C71.1567 54.2206 71.3537 54.364 71.4907 54.558C71.6277 54.752 71.6972 54.9857 71.688 55.223C71.688 56.203 70.8069 56.671 68.9639 56.671C68.2925 56.7121 67.6209 56.5938 67.0039 56.326C66.806 56.2383 66.6372 56.0961 66.5171 55.916C66.397 55.7359 66.3307 55.5254 66.3259 55.309H68.5078Z" fill="#E4E4E5"/>
</svg>
