<svg width="39" height="39" viewBox="0 0 39 39" fill="none" xmlns="http://www.w3.org/2000/svg">
<path d="M19.03 0.5H19.031C29.2648 0.5 37.561 8.79616 37.561 19.03V19.031C37.561 29.2648 29.2648 37.561 19.031 37.561H19.03C8.79616 37.561 0.5 29.2648 0.5 19.031V19.03C0.5 8.79616 8.79616 0.5 19.03 0.5Z" stroke="#E4E4E5"/>
<path d="M16.189 25.345C16.695 25.2467 17.1746 25.0431 17.5967 24.7473C18.0188 24.4514 18.3739 24.0701 18.6389 23.628C19.037 22.9915 19.2429 22.2536 19.2319 21.503C19.2526 20.8157 19.0722 20.1373 18.7129 19.551C18.3454 18.9979 17.8032 18.5839 17.1729 18.375C17.5593 18.1927 17.9052 17.9346 18.1899 17.616C18.6226 17.0563 18.8414 16.3606 18.8069 15.654C18.8263 14.9279 18.6117 14.2148 18.1948 13.62C17.7734 13.1261 17.2404 12.7398 16.6399 12.493C16.0394 12.2462 15.3888 12.1461 14.7419 12.201H8.30078V25.526H14.3059C14.9381 25.5305 15.5692 25.4699 16.189 25.345ZM10.959 14.515H13.8589C14.3916 14.5001 14.9233 14.5703 15.4338 14.723C15.6695 14.8239 15.8664 14.998 15.9954 15.2195C16.1243 15.4411 16.1785 15.6983 16.1499 15.953C16.1736 16.1788 16.1357 16.4068 16.0403 16.6128C15.9449 16.8188 15.7955 16.9951 15.6079 17.123C15.1775 17.3604 14.69 17.4746 14.199 17.453H10.96L10.959 14.515ZM10.959 23.215V19.66H14.239C14.6937 19.6436 15.1467 19.7201 15.5708 19.885C15.8434 20.005 16.0719 20.2071 16.2241 20.4631C16.3763 20.7191 16.4447 21.0162 16.4199 21.313C16.4567 21.6461 16.3929 21.9826 16.2368 22.2791C16.0807 22.5757 15.8394 22.8187 15.5439 22.977C15.1171 23.1537 14.6563 23.2339 14.1948 23.212L10.959 23.215Z" fill="#E4E4E5"/>
<path d="M21.4877 24.648C22.466 25.4481 23.6952 25.8776 24.9589 25.861C25.6438 25.9011 26.3291 25.7934 26.9687 25.5453C27.6083 25.2972 28.1873 24.9144 28.666 24.423C29.1672 23.9475 29.5021 23.3235 29.6218 22.643H26.9909C26.8163 23.0072 26.5353 23.31 26.1852 23.5115C25.8352 23.713 25.4324 23.8038 25.0297 23.772C24.5308 23.7868 24.0381 23.6584 23.6098 23.402C23.2737 23.1731 23.0023 22.8615 22.8217 22.4971C22.6411 22.1328 22.5574 21.7281 22.5788 21.322H29.7558C29.7783 20.6691 29.7499 20.0155 29.6708 19.367C29.5683 18.6369 29.2998 17.9401 28.8859 17.33C28.4696 16.692 27.8797 16.1862 27.1857 15.872C26.455 15.5553 25.6652 15.3982 24.8688 15.411C24.2192 15.3855 23.5714 15.4935 22.9653 15.7285C22.3591 15.9635 21.8076 16.3203 21.3449 16.777C20.8676 17.3073 20.5016 17.9281 20.2685 18.6024C20.0354 19.2768 19.9398 19.9911 19.9877 20.703C19.9189 21.4315 20.0184 22.1661 20.2785 22.8501C20.5386 23.5341 20.9522 24.1493 21.4877 24.648ZM23.3288 18.098C23.5324 17.9034 23.774 17.753 24.0385 17.6561C24.303 17.5592 24.5848 17.518 24.8659 17.535C25.4237 17.517 25.9684 17.7061 26.395 18.066C26.6094 18.2651 26.781 18.5059 26.8991 18.7736C27.0172 19.0413 27.0793 19.3304 27.0817 19.623H22.6428C22.7023 19.0543 22.9428 18.5198 23.3288 18.098Z" fill="#E4E4E5"/>
<path d="M27.594 12.967H21.803V14.312H27.594V12.967Z" fill="#E4E4E5"/>
</svg>
