<svg width="39" height="39" viewBox="0 0 39 39" fill="none" xmlns="http://www.w3.org/2000/svg">
<path d="M19.03 0.5H19.031C29.2648 0.5 37.561 8.79616 37.561 19.03V19.031C37.561 29.2648 29.2648 37.561 19.031 37.561H19.03C8.79616 37.561 0.5 29.2648 0.5 19.031V19.03C0.5 8.79616 8.79616 0.5 19.03 0.5Z" stroke="#E4E4E5"/>
<path d="M28.2161 9.353H9.84595C9.10313 9.35512 8.39149 9.65148 7.8667 10.1772C7.34191 10.7029 7.04693 11.4152 7.04614 12.158V25.904C7.04825 26.646 7.34376 27.3569 7.86841 27.8816C8.39305 28.4062 9.10399 28.7019 9.84595 28.704H28.2161C28.958 28.7019 29.669 28.4062 30.1936 27.8816C30.7182 27.3569 31.014 26.646 31.0161 25.904V12.158C31.0151 11.4153 30.7198 10.7032 30.1951 10.1775C29.6703 9.65183 28.9588 9.35538 28.2161 9.353ZM26.3511 12.094L19.043 17.331L11.9531 12.089L26.3511 12.094ZM28.2161 25.968H9.84595C9.82897 25.968 9.81278 25.9613 9.80078 25.9493C9.78878 25.9373 9.78198 25.921 9.78198 25.904V13.897L19.019 20.726L28.28 14.083V25.904C28.28 25.921 28.2732 25.9373 28.2612 25.9493C28.2492 25.9613 28.233 25.968 28.2161 25.968Z" fill="#E4E4E5"/>
</svg>
