<svg width="39" height="39" viewBox="0 0 39 39" fill="none" xmlns="http://www.w3.org/2000/svg">
<path d="M19.03 0.5H19.031C29.2648 0.5 37.561 8.79616 37.561 19.03V19.031C37.561 29.2648 29.2648 37.561 19.031 37.561H19.03C8.79616 37.561 0.5 29.2648 0.5 19.031V19.03C0.5 8.79616 8.79616 0.5 19.03 0.5Z" stroke="#E4E4E5" stroke-linejoin="round"/>
<path d="M16.1311 30.531H20.7642V18.931H23.9961L24.3401 15.047H20.7642V12.837C20.7642 11.921 20.948 11.559 21.833 11.559H24.3401V7.53101H21.1331C17.6861 7.53101 16.1331 9.04901 16.1331 11.955V15.055H13.7241V18.988H16.1331L16.1311 30.531Z" fill="#E4E4E5"/>
</svg>
