<svg width="39" height="39" viewBox="0 0 39 39" fill="none" xmlns="http://www.w3.org/2000/svg">
<path d="M37.56 19.031C37.56 29.2648 29.2638 37.561 19.03 37.561C8.79616 37.561 0.5 29.2648 0.5 19.031C0.5 8.79714 8.79616 0.500977 19.03 0.500977C29.2638 0.500977 37.56 8.79714 37.56 19.031Z" stroke="#E4E4E5"/>
<path d="M25.7761 15.486H16.561V14.886C16.561 13.7 17.7471 13.678 18.3501 13.678C18.6871 13.6691 19.0241 13.6915 19.3569 13.745V10.475C18.8673 10.414 18.3745 10.3839 17.8811 10.385C15.9571 10.385 12.4001 10.922 12.4001 14.994V15.511H10.7209V18.532H12.4001V24.908H10.834V27.932H18.394V24.904H16.5591V18.532H21.5901V24.908H20.0261V27.928H27.342V24.908H25.7761V15.486Z" fill="#E4E4E5"/>
</svg>
