<svg width="40" height="40" viewBox="0 0 40 40" fill="none" xmlns="http://www.w3.org/2000/svg">
<path d="M19.53 39.3911C8.76 39.3911 0 30.6311 0 19.8611C0 9.09105 8.76 0.331055 19.53 0.331055C30.3 0.331055 39.06 9.09105 39.06 19.8611C39.06 30.6311 30.3 39.3911 19.53 39.3911ZM19.53 1.33105C9.31 1.33105 1 9.64106 1 19.8611C1 30.0811 9.31 38.3911 19.53 38.3911C29.75 38.3911 38.06 30.0811 38.06 19.8611C38.06 9.64106 29.75 1.33105 19.53 1.33105Z" fill="#E4E4E5"/>
<path d="M19.53 11.3111C22.32 11.3111 22.65 11.3211 23.75 11.3711C24.77 11.4211 25.32 11.5911 25.69 11.7311C26.18 11.9211 26.52 12.1511 26.89 12.5111C27.26 12.8711 27.48 13.2211 27.67 13.7111C27.81 14.0811 27.98 14.6311 28.03 15.6511C28.08 16.7511 28.09 17.0811 28.09 19.8711C28.09 22.6611 28.08 22.9911 28.03 24.0911C27.98 25.1111 27.81 25.6611 27.67 26.0311C27.48 26.5211 27.25 26.8611 26.89 27.2311C26.52 27.6011 26.18 27.8211 25.69 28.0111C25.32 28.1511 24.77 28.3211 23.75 28.3711C22.65 28.4211 22.32 28.4311 19.53 28.4311C16.74 28.4311 16.41 28.4211 15.31 28.3711C14.29 28.3211 13.74 28.1511 13.37 28.0111C12.88 27.8211 12.54 27.5911 12.17 27.2311C11.8 26.8611 11.58 26.5211 11.39 26.0311C11.25 25.6611 11.08 25.1111 11.03 24.0911C10.98 22.9911 10.97 22.6611 10.97 19.8711C10.97 17.0811 10.98 16.7511 11.03 15.6511C11.08 14.6311 11.25 14.0811 11.39 13.7111C11.58 13.2211 11.81 12.8811 12.17 12.5111C12.54 12.1411 12.88 11.9211 13.37 11.7311C13.74 11.5911 14.29 11.4211 15.31 11.3711C16.41 11.3211 16.74 11.3111 19.53 11.3111ZM19.53 9.43106C16.7 9.43106 16.34 9.44106 15.23 9.49106C14.12 9.54106 13.36 9.72106 12.7 9.98106C12.01 10.2511 11.43 10.6011 10.85 11.1811C10.27 11.7611 9.91001 12.3411 9.65001 13.0311C9.39001 13.6911 9.22001 14.4511 9.16001 15.5611C9.11001 16.6711 9.10001 17.0311 9.10001 19.8611C9.10001 22.6911 9.11001 23.0511 9.16001 24.1611C9.21001 25.2711 9.39001 26.0311 9.65001 26.6911C9.92001 27.3811 10.27 27.9611 10.85 28.5411C11.43 29.1211 12.01 29.4811 12.7 29.7411C13.36 30.0011 14.12 30.1711 15.23 30.2311C16.34 30.2811 16.7 30.2911 19.53 30.2911C22.36 30.2911 22.72 30.2811 23.83 30.2311C24.94 30.1811 25.7 30.0011 26.36 29.7411C27.05 29.4711 27.63 29.1211 28.21 28.5411C28.79 27.9611 29.15 27.3811 29.41 26.6911C29.67 26.0311 29.84 25.2711 29.9 24.1611C29.95 23.0511 29.96 22.6911 29.96 19.8611C29.96 17.0311 29.95 16.6711 29.9 15.5611C29.85 14.4511 29.67 13.6911 29.41 13.0311C29.14 12.3411 28.79 11.7611 28.21 11.1811C27.63 10.6011 27.05 10.2411 26.36 9.98106C25.7 9.72106 24.94 9.55106 23.83 9.49106C22.72 9.44106 22.36 9.43106 19.53 9.43106ZM19.53 14.5111C16.57 14.5111 14.17 16.9111 14.17 19.8711C14.17 22.8311 16.57 25.2311 19.53 25.2311C22.49 25.2311 24.89 22.8311 24.89 19.8711C24.89 16.9111 22.49 14.5111 19.53 14.5111ZM19.53 23.3511C17.61 23.3511 16.05 21.7911 16.05 19.8711C16.05 17.9511 17.61 16.3911 19.53 16.3911C21.45 16.3911 23.01 17.9511 23.01 19.8711C23.01 21.7911 21.45 23.3511 19.53 23.3511ZM26.35 14.3011C26.35 14.9911 25.79 15.5511 25.1 15.5511C24.41 15.5511 23.85 14.9911 23.85 14.3011C23.85 13.6111 24.41 13.0511 25.1 13.0511C25.79 13.0511 26.35 13.6111 26.35 14.3011Z" fill="#E4E4E5"/>
</svg>
