<svg width="39" height="39" viewBox="0 0 39 39" fill="none" xmlns="http://www.w3.org/2000/svg">
<path d="M19.031 0.668945H19.03C8.52002 0.668945 0 9.18897 0 19.6989V19.6999C0 30.2099 8.52002 38.7299 19.03 38.7299H19.031C29.541 38.7299 38.061 30.2099 38.061 19.6999V19.6989C38.061 9.18897 29.541 0.668945 19.031 0.668945Z" fill="#E4E4E5"/>
<path d="M16.189 26.0139C16.695 25.9157 17.1746 25.712 17.5967 25.4162C18.0188 25.1204 18.3739 24.739 18.6389 24.2969C19.037 23.6604 19.2429 22.9226 19.2319 22.1719C19.2526 21.4846 19.0722 20.8062 18.7129 20.2199C18.3454 19.6669 17.8032 19.2528 17.1729 19.0439C17.5593 18.8617 17.9052 18.6035 18.1899 18.285C18.6226 17.7253 18.8414 17.0295 18.8069 16.3229C18.8263 15.5969 18.6117 14.8838 18.1948 14.2889C17.7734 13.7951 17.2404 13.4087 16.6399 13.1619C16.0394 12.9152 15.3888 12.8151 14.7419 12.8699H8.30078V26.1949H14.3059C14.9381 26.1995 15.5692 26.1388 16.189 26.0139ZM10.959 15.1839H13.8589C14.3916 15.169 14.9233 15.2392 15.4338 15.3919C15.6695 15.4928 15.8664 15.6669 15.9954 15.8885C16.1243 16.11 16.1785 16.3672 16.1499 16.6219C16.1736 16.8477 16.1357 17.0757 16.0403 17.2817C15.9449 17.4877 15.7955 17.6641 15.6079 17.7919C15.1775 18.0294 14.69 18.1435 14.199 18.1219H10.96L10.959 15.1839ZM10.959 23.8839V20.3289H14.239C14.6937 20.3125 15.1467 20.3891 15.5708 20.5539C15.8434 20.6739 16.0719 20.876 16.2241 21.132C16.3763 21.388 16.4447 21.6852 16.4199 21.9819C16.4567 22.3151 16.3929 22.6515 16.2368 22.9481C16.0807 23.2446 15.8394 23.4877 15.5439 23.646C15.1171 23.8226 14.6563 23.9029 14.1948 23.8809L10.959 23.8839Z" fill="black"/>
<path d="M21.4877 25.3169C22.466 26.1171 23.6952 26.5466 24.9589 26.5299C25.6438 26.57 26.3291 26.4623 26.9687 26.2142C27.6083 25.9661 28.1873 25.5834 28.666 25.092C29.1672 24.6164 29.5021 23.9924 29.6218 23.3119H26.9909C26.8163 23.6761 26.5353 23.9789 26.1852 24.1804C25.8352 24.382 25.4324 24.4728 25.0297 24.441C24.5308 24.4557 24.0381 24.3273 23.6098 24.0709C23.2737 23.8421 23.0023 23.5304 22.8217 23.1661C22.6411 22.8018 22.5574 22.397 22.5788 21.9909H29.7558C29.7783 21.3381 29.7499 20.6844 29.6708 20.036C29.5683 19.3059 29.2998 18.609 28.8859 17.9989C28.4696 17.361 27.8797 16.8552 27.1857 16.5409C26.455 16.2243 25.6652 16.0671 24.8688 16.08C24.2192 16.0544 23.5714 16.1625 22.9653 16.3974C22.3591 16.6324 21.8076 16.9893 21.3449 17.4459C20.8676 17.9763 20.5016 18.597 20.2685 19.2714C20.0354 19.9458 19.9398 20.66 19.9877 21.372C19.9189 22.1005 20.0184 22.8351 20.2785 23.5191C20.5386 24.2031 20.9522 24.8182 21.4877 25.3169ZM23.3288 18.7669C23.5324 18.5724 23.774 18.4219 24.0385 18.325C24.303 18.2282 24.5848 18.1869 24.8659 18.204C25.4237 18.1859 25.9684 18.3751 26.395 18.7349C26.6094 18.934 26.781 19.1748 26.8991 19.4425C27.0172 19.7103 27.0793 19.9993 27.0817 20.2919H22.6428C22.7023 19.7233 22.9428 19.1888 23.3288 18.7669Z" fill="black"/>
<path d="M27.594 13.6359H21.803V14.9809H27.594V13.6359Z" fill="black"/>
</svg>
