<svg width="39" height="39" viewBox="0 0 39 39" fill="none" xmlns="http://www.w3.org/2000/svg">
<path d="M19.031 0.668945H19.03C8.52002 0.668945 0 9.18897 0 19.6989V19.6999C0 30.2099 8.52002 38.7299 19.03 38.7299H19.031C29.541 38.7299 38.061 30.2099 38.061 19.6999V19.6989C38.061 9.18897 29.541 0.668945 19.031 0.668945Z" fill="#E4E4E5"/>
<path d="M28.2161 10.0219H9.84595C9.10313 10.0241 8.39149 10.3204 7.8667 10.8462C7.34191 11.3719 7.04693 12.0841 7.04614 12.827V26.5729C7.04825 27.3149 7.34376 28.0259 7.86841 28.5505C8.39305 29.0752 9.10399 29.3708 9.84595 29.3729H28.2161C28.958 29.3708 29.669 29.0752 30.1936 28.5505C30.7182 28.0259 31.014 27.3149 31.0161 26.5729V12.827C31.0151 12.0842 30.7198 11.3721 30.1951 10.8464C29.6703 10.3208 28.9588 10.0243 28.2161 10.0219ZM26.3511 12.7629L19.043 17.9999L11.9531 12.7579L26.3511 12.7629ZM28.2161 26.6369H9.84595C9.82897 26.6369 9.81278 26.6302 9.80078 26.6182C9.78878 26.6062 9.78198 26.5899 9.78198 26.5729V14.5659L19.019 21.3949L28.28 14.7519V26.5729C28.28 26.5899 28.2732 26.6062 28.2612 26.6182C28.2492 26.6302 28.233 26.6369 28.2161 26.6369Z" fill="black"/>
</svg>
