<svg width="39" height="39" viewBox="0 0 39 39" fill="none" xmlns="http://www.w3.org/2000/svg">
<path d="M19.031 0.668945H19.03C8.52002 0.668945 0 9.18897 0 19.6989V19.6999C0 30.2099 8.52002 38.7299 19.03 38.7299H19.031C29.541 38.7299 38.061 30.2099 38.061 19.6999V19.6989C38.061 9.18897 29.541 0.668945 19.031 0.668945Z" fill="#E4E4E5"/>
<path d="M16.1311 31.1999H20.7642V19.5999H23.9961L24.3401 15.716H20.7642V13.5059C20.7642 12.5899 20.948 12.2279 21.833 12.2279H24.3401V8.19995H21.1331C17.6861 8.19995 16.1331 9.71795 16.1331 12.624V15.7239H13.7241V19.6569H16.1331L16.1311 31.1999Z" fill="black"/>
</svg>
