<svg width="39" height="39" viewBox="0 0 39 39" fill="none" xmlns="http://www.w3.org/2000/svg">
<path d="M19.03 38.7289C29.54 38.7289 38.06 30.2089 38.06 19.6989C38.06 9.18897 29.54 0.668945 19.03 0.668945C8.52002 0.668945 0 9.18897 0 19.6989C0 30.2089 8.52002 38.7289 19.03 38.7289Z" fill="#E4E4E5"/>
<path d="M25.7761 16.1539H16.561V15.554C16.561 14.368 17.7471 14.346 18.3501 14.346C18.6871 14.3371 19.0241 14.3595 19.3569 14.413V11.1429C18.8673 11.082 18.3745 11.0519 17.8811 11.053C15.9571 11.053 12.4001 11.59 12.4001 15.662V16.179H10.7209V19.1999H12.4001V25.5759H10.834V28.5999H18.394V25.5719H16.5591V19.1999H21.5901V25.5759H20.0261V28.596H27.342V25.5759H25.7761V16.1539Z" fill="black"/>
</svg>
