<svg width="39" height="40" viewBox="0 0 39 40" fill="none" xmlns="http://www.w3.org/2000/svg">
<path d="M38.06 19.3611C38.06 8.85108 29.54 0.331055 19.03 0.331055C8.52002 0.331055 0 8.85108 0 19.3611C0 29.871 8.52002 38.3911 19.03 38.3911C29.54 38.3911 38.06 29.871 38.06 19.3611Z" fill="#E4E4E5"/>
<path d="M19.03 10.8111C21.82 10.8111 22.15 10.8211 23.25 10.8711C24.27 10.9211 24.82 11.0911 25.19 11.2311C25.68 11.4211 26.02 11.6511 26.39 12.0111C26.76 12.3711 26.98 12.7211 27.17 13.2111C27.31 13.5811 27.48 14.1311 27.53 15.1511C27.58 16.2511 27.59 16.5811 27.59 19.3711C27.59 22.1611 27.58 22.4911 27.53 23.5911C27.48 24.6111 27.31 25.1611 27.17 25.5311C26.98 26.0211 26.75 26.3611 26.39 26.7311C26.02 27.1011 25.68 27.3211 25.19 27.5111C24.82 27.6511 24.27 27.8211 23.25 27.8711C22.15 27.9211 21.82 27.9311 19.03 27.9311C16.24 27.9311 15.91 27.9211 14.81 27.8711C13.79 27.8211 13.24 27.6511 12.87 27.5111C12.38 27.3211 12.04 27.0911 11.67 26.7311C11.3 26.3611 11.08 26.0211 10.89 25.5311C10.75 25.1611 10.58 24.6111 10.53 23.5911C10.48 22.4911 10.47 22.1611 10.47 19.3711C10.47 16.5811 10.48 16.2511 10.53 15.1511C10.58 14.1311 10.75 13.5811 10.89 13.2111C11.08 12.7211 11.31 12.3811 11.67 12.0111C12.04 11.6411 12.38 11.4211 12.87 11.2311C13.24 11.0911 13.79 10.9211 14.81 10.8711C15.91 10.8211 16.24 10.8111 19.03 10.8111ZM19.03 8.93105C16.2 8.93105 15.84 8.94105 14.73 8.99105C13.62 9.04105 12.86 9.22105 12.2 9.48105C11.51 9.75105 10.93 10.1011 10.35 10.6811C9.77001 11.2611 9.41001 11.8411 9.15001 12.5311C8.89001 13.1911 8.72001 13.9511 8.66001 15.0611C8.61001 16.1711 8.60001 16.5311 8.60001 19.3611C8.60001 22.1911 8.61001 22.5511 8.66001 23.6611C8.71001 24.7711 8.89001 25.5311 9.15001 26.1911C9.42001 26.8811 9.77001 27.4611 10.35 28.0411C10.93 28.6211 11.51 28.9811 12.2 29.2411C12.86 29.5011 13.62 29.6711 14.73 29.7311C15.84 29.7811 16.2 29.7911 19.03 29.7911C21.86 29.7911 22.22 29.7811 23.33 29.7311C24.44 29.6811 25.2 29.5011 25.86 29.2411C26.55 28.9711 27.13 28.6211 27.71 28.0411C28.29 27.4611 28.65 26.8811 28.91 26.1911C29.17 25.5311 29.34 24.7711 29.4 23.6611C29.45 22.5511 29.46 22.1911 29.46 19.3611C29.46 16.5311 29.45 16.1711 29.4 15.0611C29.35 13.9511 29.17 13.1911 28.91 12.5311C28.64 11.8411 28.29 11.2611 27.71 10.6811C27.13 10.1011 26.55 9.74105 25.86 9.48105C25.2 9.22105 24.44 9.05105 23.33 8.99105C22.22 8.94105 21.86 8.93105 19.03 8.93105ZM19.03 14.0111C16.07 14.0111 13.67 16.4111 13.67 19.3711C13.67 22.3311 16.07 24.7311 19.03 24.7311C21.99 24.7311 24.39 22.3311 24.39 19.3711C24.39 16.4111 21.99 14.0111 19.03 14.0111ZM19.03 22.8511C17.11 22.8511 15.55 21.2911 15.55 19.3711C15.55 17.4511 17.11 15.8911 19.03 15.8911C20.95 15.8911 22.51 17.4511 22.51 19.3711C22.51 21.2911 20.95 22.8511 19.03 22.8511ZM25.85 13.8011C25.85 14.4911 25.29 15.0511 24.6 15.0511C23.91 15.0511 23.35 14.4911 23.35 13.8011C23.35 13.1111 23.91 12.5511 24.6 12.5511C25.29 12.5511 25.85 13.1111 25.85 13.8011Z" fill="#0A0A08"/>
</svg>
